<mxfile host="app.diagrams.net" modified="2021-05-13T08:19:44.607Z" agent="5.0 (Windows NT 10.0; Win64; x64) AppleWebKit/537.36 (KHTML, like Gecko) Chrome/90.0.4430.93 Safari/537.36 Edg/90.0.818.56" etag="fz0jH3mVcP7ANJw-o6Io" version="14.6.11" type="github" pages="2">
  <diagram name="Page-1" id="822b0af5-4adb-64df-f703-e8dfc1f81529">
    <mxGraphModel dx="1564" dy="938" grid="1" gridSize="10" guides="1" tooltips="1" connect="1" arrows="1" fold="1" page="1" pageScale="1" pageWidth="1100" pageHeight="850" background="#ffffff" math="0" shadow="0">
      <root>
        <mxCell id="0" />
        <mxCell id="1" parent="0" />
        <mxCell id="7d933b09d9755ecc-14" value="Resource forest" style="triangle;whiteSpace=wrap;html=1;shadow=0;comic=0;strokeWidth=1;fontFamily=Verdana;direction=north;labelPosition=center;verticalLabelPosition=bottom;align=center;verticalAlign=top;" parent="1" vertex="1">
          <mxGeometry x="830" y="230" width="530" height="537" as="geometry" />
        </mxCell>
        <mxCell id="7d933b09d9755ecc-12" value="User forest" style="triangle;whiteSpace=wrap;html=1;shadow=0;comic=0;strokeWidth=1;fontFamily=Verdana;direction=north;labelPosition=center;verticalLabelPosition=bottom;align=center;verticalAlign=top;" parent="1" vertex="1">
          <mxGeometry x="400" y="92" width="286" height="340" as="geometry" />
        </mxCell>
        <mxCell id="7d933b09d9755ecc-13" value="" style="ellipse;whiteSpace=wrap;html=1;shadow=0;comic=0;strokeWidth=1;fontFamily=Verdana;" parent="1" vertex="1">
          <mxGeometry x="473" y="326" width="142" height="94" as="geometry" />
        </mxCell>
        <mxCell id="7d933b09d9755ecc-4" value="" style="verticalLabelPosition=bottom;aspect=fixed;html=1;verticalAlign=top;strokeColor=none;shape=mxgraph.citrix.directory_server;shadow=0;comic=0;fontFamily=Verdana;" parent="1" vertex="1">
          <mxGeometry x="1063" y="64" width="65" height="88.5" as="geometry" />
        </mxCell>
        <mxCell id="7d933b09d9755ecc-5" value="" style="verticalLabelPosition=bottom;aspect=fixed;html=1;verticalAlign=top;strokeColor=none;shape=mxgraph.citrix.file_server;shadow=0;comic=0;fontFamily=Verdana;" parent="1" vertex="1">
          <mxGeometry x="1053" y="611" width="71" height="97" as="geometry" />
        </mxCell>
        <mxCell id="7d933b09d9755ecc-6" value="Users" style="verticalLabelPosition=bottom;aspect=fixed;html=1;verticalAlign=top;strokeColor=none;shape=mxgraph.citrix.users;shadow=0;comic=0;fontFamily=Verdana;" parent="1" vertex="1">
          <mxGeometry x="511" y="339" width="64.5" height="55" as="geometry" />
        </mxCell>
        <mxCell id="7d933b09d9755ecc-9" value="" style="verticalLabelPosition=bottom;aspect=fixed;html=1;verticalAlign=top;strokeColor=none;shape=mxgraph.citrix.tower_server;shadow=0;comic=0;fontFamily=Verdana;" parent="1" vertex="1">
          <mxGeometry x="511" y="193" width="65" height="85" as="geometry" />
        </mxCell>
        <mxCell id="7d933b09d9755ecc-15" value="" style="ellipse;whiteSpace=wrap;html=1;shadow=0;comic=0;strokeWidth=1;fontFamily=Verdana;" parent="1" vertex="1">
          <mxGeometry x="979" y="440" width="220" height="140" as="geometry" />
        </mxCell>
        <mxCell id="7d933b09d9755ecc-16" value="Disabled users" style="verticalLabelPosition=bottom;aspect=fixed;html=1;verticalAlign=top;strokeColor=none;shape=mxgraph.citrix.users;shadow=0;comic=0;fontFamily=Verdana;" parent="1" vertex="1">
          <mxGeometry x="1060" y="477" width="64.5" height="55" as="geometry" />
        </mxCell>
        <mxCell id="7d933b09d9755ecc-17" value="" style="verticalLabelPosition=bottom;aspect=fixed;html=1;verticalAlign=top;strokeColor=none;shape=mxgraph.citrix.tower_server;shadow=0;comic=0;fontFamily=Verdana;" parent="1" vertex="1">
          <mxGeometry x="1060" y="331" width="65" height="85" as="geometry" />
        </mxCell>
        <mxCell id="7d933b09d9755ecc-18" value="User forest" style="triangle;whiteSpace=wrap;html=1;shadow=0;comic=0;strokeWidth=1;fontFamily=Verdana;direction=north;labelPosition=center;verticalLabelPosition=bottom;align=center;verticalAlign=top;" parent="1" vertex="1">
          <mxGeometry x="1580" y="76" width="286" height="340" as="geometry" />
        </mxCell>
        <mxCell id="7d933b09d9755ecc-19" value="" style="ellipse;whiteSpace=wrap;html=1;shadow=0;comic=0;strokeWidth=1;fontFamily=Verdana;" parent="1" vertex="1">
          <mxGeometry x="1653" y="310" width="142" height="90" as="geometry" />
        </mxCell>
        <mxCell id="7d933b09d9755ecc-20" value="Users" style="verticalLabelPosition=bottom;aspect=fixed;html=1;verticalAlign=top;strokeColor=none;shape=mxgraph.citrix.users;shadow=0;comic=0;fontFamily=Verdana;" parent="1" vertex="1">
          <mxGeometry x="1691" y="323" width="64.5" height="55" as="geometry" />
        </mxCell>
        <mxCell id="7d933b09d9755ecc-21" value="" style="verticalLabelPosition=bottom;aspect=fixed;html=1;verticalAlign=top;strokeColor=none;shape=mxgraph.citrix.tower_server;shadow=0;comic=0;fontFamily=Verdana;" parent="1" vertex="1">
          <mxGeometry x="1691" y="177" width="65" height="85" as="geometry" />
        </mxCell>
        <mxCell id="7d933b09d9755ecc-22" style="html=1;labelBackgroundColor=none;startArrow=none;startFill=0;endArrow=block;endFill=1;strokeColor=#0000FF;strokeWidth=1;fontFamily=Verdana;fontSize=12" parent="1" source="7d933b09d9755ecc-19" target="7d933b09d9755ecc-15" edge="1">
          <mxGeometry relative="1" as="geometry" />
        </mxCell>
        <mxCell id="7d933b09d9755ecc-23" style="html=1;labelBackgroundColor=none;startArrow=none;startFill=0;endArrow=block;endFill=1;strokeColor=#0000FF;strokeWidth=1;fontFamily=Verdana;fontSize=12" parent="1" source="7d933b09d9755ecc-13" target="7d933b09d9755ecc-15" edge="1">
          <mxGeometry relative="1" as="geometry" />
        </mxCell>
        <mxCell id="7d933b09d9755ecc-24" style="edgeStyle=none;html=1;exitX=0.5;exitY=1;labelBackgroundColor=none;startArrow=none;startFill=0;endArrow=block;endFill=1;strokeColor=#0000FF;strokeWidth=1;fontFamily=Verdana;fontSize=12;fontColor=#000000;" parent="1" source="7d933b09d9755ecc-15" target="7d933b09d9755ecc-5" edge="1">
          <mxGeometry relative="1" as="geometry" />
        </mxCell>
        <mxCell id="7d933b09d9755ecc-25" value="Trust relationship" style="html=1;labelBackgroundColor=none;startArrow=none;startFill=0;endArrow=block;endFill=1;strokeColor=#FF0000;strokeWidth=1;fontFamily=Verdana;fontSize=12;entryX=1;entryY=0.5;" parent="1" target="7d933b09d9755ecc-18" edge="1">
          <mxGeometry x="-0.0165" y="-10" relative="1" as="geometry">
            <mxPoint x="1095" y="230" as="sourcePoint" />
            <mxPoint x="1530" y="240" as="targetPoint" />
            <Array as="points">
              <mxPoint x="1400" y="110" />
            </Array>
            <mxPoint as="offset" />
          </mxGeometry>
        </mxCell>
        <mxCell id="7d933b09d9755ecc-26" value="Trust relationship" style="html=1;entryX=1;entryY=0.5;labelBackgroundColor=none;startArrow=none;startFill=0;endArrow=block;endFill=1;strokeColor=#FF0000;strokeWidth=1;fontFamily=Verdana;fontSize=12;" parent="1" target="7d933b09d9755ecc-12" edge="1">
          <mxGeometry x="-0.0644" y="45" relative="1" as="geometry">
            <mxPoint x="1095" y="230" as="sourcePoint" />
            <Array as="points">
              <mxPoint x="920" y="120" />
            </Array>
            <mxPoint as="offset" />
          </mxGeometry>
        </mxCell>
        <mxCell id="7d933b09d9755ecc-27" value="Synchronization" style="html=1;entryX=0.878;entryY=0.433;entryPerimeter=0;labelBackgroundColor=none;startArrow=none;startFill=0;endArrow=block;endFill=1;strokeWidth=1;fontFamily=Verdana;fontSize=12" parent="1" source="7d933b09d9755ecc-4" target="7d933b09d9755ecc-18" edge="1">
          <mxGeometry x="-0.3348" y="21" relative="1" as="geometry">
            <mxPoint as="offset" />
          </mxGeometry>
        </mxCell>
        <mxCell id="7d933b09d9755ecc-28" value="Synchronization" style="edgeStyle=none;html=1;labelBackgroundColor=none;startArrow=none;startFill=0;endArrow=block;endFill=1;strokeWidth=1;fontFamily=Verdana;fontSize=12" parent="1" source="7d933b09d9755ecc-4" target="7d933b09d9755ecc-14" edge="1">
          <mxGeometry x="-0.2966" relative="1" as="geometry">
            <mxPoint as="offset" />
          </mxGeometry>
        </mxCell>
        <mxCell id="7d933b09d9755ecc-29" value="Synchronization" style="edgeStyle=none;html=1;entryX=0.912;entryY=0.559;entryPerimeter=0;labelBackgroundColor=none;startArrow=none;startFill=0;endArrow=block;endFill=1;strokeWidth=1;fontFamily=Verdana;fontSize=12" parent="1" source="7d933b09d9755ecc-4" target="7d933b09d9755ecc-12" edge="1">
          <mxGeometry x="-0.1948" y="-14" relative="1" as="geometry">
            <mxPoint as="offset" />
          </mxGeometry>
        </mxCell>
        <mxCell id="7d933b09d9755ecc-31" value="User forest" style="triangle;whiteSpace=wrap;html=1;shadow=0;comic=0;strokeWidth=1;fontFamily=Verdana;direction=north;labelPosition=center;verticalLabelPosition=bottom;align=center;verticalAlign=top;" parent="1" vertex="1">
          <mxGeometry x="483" y="477" width="286" height="340" as="geometry" />
        </mxCell>
        <mxCell id="7d933b09d9755ecc-32" value="" style="ellipse;whiteSpace=wrap;html=1;shadow=0;comic=0;strokeWidth=1;fontFamily=Verdana;" parent="1" vertex="1">
          <mxGeometry x="556" y="711" width="142" height="89" as="geometry" />
        </mxCell>
        <mxCell id="7d933b09d9755ecc-33" value="Users" style="verticalLabelPosition=bottom;aspect=fixed;html=1;verticalAlign=top;strokeColor=none;shape=mxgraph.citrix.users;shadow=0;comic=0;fontFamily=Verdana;" parent="1" vertex="1">
          <mxGeometry x="594" y="724" width="64.5" height="55" as="geometry" />
        </mxCell>
        <mxCell id="7d933b09d9755ecc-34" value="" style="verticalLabelPosition=bottom;aspect=fixed;html=1;verticalAlign=top;strokeColor=none;shape=mxgraph.citrix.tower_server;shadow=0;comic=0;fontFamily=Verdana;" parent="1" vertex="1">
          <mxGeometry x="594" y="578" width="65" height="85" as="geometry" />
        </mxCell>
        <mxCell id="7d933b09d9755ecc-35" value="User forest" style="triangle;whiteSpace=wrap;html=1;shadow=0;comic=0;strokeWidth=1;fontFamily=Verdana;direction=north;labelPosition=center;verticalLabelPosition=bottom;align=center;verticalAlign=top;" parent="1" vertex="1">
          <mxGeometry x="1405" y="460" width="286" height="340" as="geometry" />
        </mxCell>
        <mxCell id="7d933b09d9755ecc-36" value="" style="ellipse;whiteSpace=wrap;html=1;shadow=0;comic=0;strokeWidth=1;fontFamily=Verdana;" parent="1" vertex="1">
          <mxGeometry x="1478" y="694" width="142" height="96" as="geometry" />
        </mxCell>
        <mxCell id="7d933b09d9755ecc-37" value="Users" style="verticalLabelPosition=bottom;aspect=fixed;html=1;verticalAlign=top;strokeColor=none;shape=mxgraph.citrix.users;shadow=0;comic=0;fontFamily=Verdana;" parent="1" vertex="1">
          <mxGeometry x="1516" y="707" width="64.5" height="55" as="geometry" />
        </mxCell>
        <mxCell id="7d933b09d9755ecc-38" value="" style="verticalLabelPosition=bottom;aspect=fixed;html=1;verticalAlign=top;strokeColor=none;shape=mxgraph.citrix.tower_server;shadow=0;comic=0;fontFamily=Verdana;" parent="1" vertex="1">
          <mxGeometry x="1516" y="561" width="65" height="85" as="geometry" />
        </mxCell>
        <mxCell id="7d933b09d9755ecc-39" style="edgeStyle=none;html=1;exitX=1;exitY=0.5;labelBackgroundColor=none;startFill=0;endArrow=block;endFill=1;strokeColor=#0000FF;strokeWidth=1;fontFamily=Verdana;fontSize=12;" parent="1" source="7d933b09d9755ecc-32" target="7d933b09d9755ecc-15" edge="1">
          <mxGeometry relative="1" as="geometry" />
        </mxCell>
        <mxCell id="7d933b09d9755ecc-40" style="edgeStyle=none;html=1;exitX=0;exitY=0.5;labelBackgroundColor=none;startFill=0;endArrow=block;endFill=1;strokeColor=#0000FF;strokeWidth=1;fontFamily=Verdana;fontSize=12;" parent="1" source="7d933b09d9755ecc-36" target="7d933b09d9755ecc-15" edge="1">
          <mxGeometry relative="1" as="geometry" />
        </mxCell>
        <mxCell id="7d933b09d9755ecc-41" value="Trust relationship" style="html=1;exitX=1;exitY=0.5;labelBackgroundColor=none;startFill=0;endArrow=block;endFill=1;strokeColor=#FF0000;strokeWidth=1;fontFamily=Verdana;fontSize=12;entryX=1;entryY=0.5;" parent="1" source="7d933b09d9755ecc-14" target="7d933b09d9755ecc-31" edge="1">
          <mxGeometry x="0.0622" relative="1" as="geometry">
            <mxPoint x="660" y="490" as="targetPoint" />
            <Array as="points">
              <mxPoint x="890" y="270" />
            </Array>
            <mxPoint as="offset" />
          </mxGeometry>
        </mxCell>
        <mxCell id="7d933b09d9755ecc-42" value="Trust relationship" style="html=1;exitX=1;exitY=0.5;entryX=1;entryY=0.5;labelBackgroundColor=none;startFill=0;endArrow=block;endFill=1;strokeColor=#FF0000;strokeWidth=1;fontFamily=Verdana;fontSize=12;" parent="1" source="7d933b09d9755ecc-14" target="7d933b09d9755ecc-35" edge="1">
          <mxGeometry x="0.3227" y="10" relative="1" as="geometry">
            <Array as="points">
              <mxPoint x="1380" y="290" />
            </Array>
            <mxPoint as="offset" />
          </mxGeometry>
        </mxCell>
        <mxCell id="7d933b09d9755ecc-43" value="Synchronization" style="edgeStyle=none;html=1;entryX=0.653;entryY=0.304;entryPerimeter=0;labelBackgroundColor=none;startFill=0;endArrow=block;endFill=1;strokeWidth=1;fontFamily=Verdana;fontSize=12;" parent="1" source="7d933b09d9755ecc-4" target="7d933b09d9755ecc-35" edge="1">
          <mxGeometry relative="1" as="geometry" />
        </mxCell>
        <mxCell id="7d933b09d9755ecc-44" value="Synchronization" style="edgeStyle=none;html=1;entryX=0.544;entryY=0.766;entryPerimeter=0;labelBackgroundColor=none;startFill=0;endArrow=block;endFill=1;strokeWidth=1;fontFamily=Verdana;fontSize=12;" parent="1" source="7d933b09d9755ecc-4" target="7d933b09d9755ecc-31" edge="1">
          <mxGeometry x="-0.1797" y="19" relative="1" as="geometry">
            <mxPoint as="offset" />
          </mxGeometry>
        </mxCell>
      </root>
    </mxGraphModel>
  </diagram>
  <diagram id="BizLRtSfWupJ2aQfOUDk" name="Page-2">
    <mxGraphModel dx="782" dy="469" grid="1" gridSize="10" guides="1" tooltips="1" connect="1" arrows="1" fold="1" page="1" pageScale="1" pageWidth="827" pageHeight="1169" math="0" shadow="0">
      <root>
        <mxCell id="V8KVcdp7L9R32G6Ya9ke-0" />
        <mxCell id="V8KVcdp7L9R32G6Ya9ke-1" parent="V8KVcdp7L9R32G6Ya9ke-0" />
        <mxCell id="V8KVcdp7L9R32G6Ya9ke-2" value="" style="fontColor=#0066CC;verticalAlign=top;verticalLabelPosition=bottom;labelPosition=center;align=center;html=1;outlineConnect=0;fillColor=#CCCCCC;strokeColor=#6881B3;gradientColor=none;gradientDirection=north;strokeWidth=2;shape=mxgraph.networks.radio_tower;" vertex="1" parent="V8KVcdp7L9R32G6Ya9ke-1">
          <mxGeometry x="140" y="350" width="80" height="140" as="geometry" />
        </mxCell>
        <mxCell id="V8KVcdp7L9R32G6Ya9ke-3" value="" style="fontColor=#0066CC;verticalAlign=top;verticalLabelPosition=bottom;labelPosition=center;align=center;html=1;outlineConnect=0;fillColor=#CCCCCC;strokeColor=#6881B3;gradientColor=none;gradientDirection=north;strokeWidth=2;shape=mxgraph.networks.mobile;" vertex="1" parent="V8KVcdp7L9R32G6Ya9ke-1">
          <mxGeometry x="160" y="152" width="40" height="80" as="geometry" />
        </mxCell>
        <mxCell id="V8KVcdp7L9R32G6Ya9ke-4" value="&lt;font style=&quot;font-size: 18px;&quot;&gt;MMTel AS&lt;/font&gt;" style="rounded=0;whiteSpace=wrap;html=1;fontSize=18;shadow=0;" vertex="1" parent="V8KVcdp7L9R32G6Ya9ke-1">
          <mxGeometry x="420" y="160" width="210" height="50" as="geometry" />
        </mxCell>
        <mxCell id="V8KVcdp7L9R32G6Ya9ke-5" value="&lt;font style=&quot;font-size: 14px;&quot;&gt;HSS&lt;/font&gt;" style="rounded=0;whiteSpace=wrap;html=1;fontSize=14;shadow=0;" vertex="1" parent="V8KVcdp7L9R32G6Ya9ke-1">
          <mxGeometry x="340" y="240" width="90" height="40" as="geometry" />
        </mxCell>
        <mxCell id="V8KVcdp7L9R32G6Ya9ke-6" value="CSCF" style="rounded=0;whiteSpace=wrap;html=1;fontSize=14;shadow=0;" vertex="1" parent="V8KVcdp7L9R32G6Ya9ke-1">
          <mxGeometry x="570" y="240" width="90" height="40" as="geometry" />
        </mxCell>
        <mxCell id="V8KVcdp7L9R32G6Ya9ke-7" value="&lt;font style=&quot;font-size: 16px&quot;&gt;DRA&lt;/font&gt;" style="rounded=0;whiteSpace=wrap;html=1;fontSize=14;shadow=0;" vertex="1" parent="V8KVcdp7L9R32G6Ya9ke-1">
          <mxGeometry x="410" y="310" width="230" height="50" as="geometry" />
        </mxCell>
        <mxCell id="V8KVcdp7L9R32G6Ya9ke-8" value="&lt;font style=&quot;font-size: 14px&quot;&gt;MME&lt;/font&gt;" style="rounded=0;whiteSpace=wrap;html=1;shadow=0;" vertex="1" parent="V8KVcdp7L9R32G6Ya9ke-1">
          <mxGeometry x="370" y="390" width="90" height="40" as="geometry" />
        </mxCell>
        <mxCell id="V8KVcdp7L9R32G6Ya9ke-9" value="&lt;font style=&quot;font-size: 14px&quot;&gt;PCRF&lt;/font&gt;" style="rounded=0;whiteSpace=wrap;html=1;shadow=0;" vertex="1" parent="V8KVcdp7L9R32G6Ya9ke-1">
          <mxGeometry x="590" y="390" width="90" height="40" as="geometry" />
        </mxCell>
        <mxCell id="V8KVcdp7L9R32G6Ya9ke-10" value="&lt;font style=&quot;font-size: 14px&quot;&gt;S-GW&lt;/font&gt;" style="rounded=0;whiteSpace=wrap;html=1;shadow=0;" vertex="1" parent="V8KVcdp7L9R32G6Ya9ke-1">
          <mxGeometry x="370" y="450" width="90" height="40" as="geometry" />
        </mxCell>
        <mxCell id="V8KVcdp7L9R32G6Ya9ke-11" value="&lt;font style=&quot;font-size: 14px&quot;&gt;P-GW&lt;/font&gt;" style="rounded=0;whiteSpace=wrap;html=1;shadow=0;" vertex="1" parent="V8KVcdp7L9R32G6Ya9ke-1">
          <mxGeometry x="590" y="450" width="90" height="40" as="geometry" />
        </mxCell>
        <mxCell id="V8KVcdp7L9R32G6Ya9ke-20" value="" style="endArrow=none;html=1;fontSize=18;exitX=0.5;exitY=0;exitDx=0;exitDy=0;shadow=0;" edge="1" parent="V8KVcdp7L9R32G6Ya9ke-1" source="V8KVcdp7L9R32G6Ya9ke-7" target="V8KVcdp7L9R32G6Ya9ke-4">
          <mxGeometry width="50" height="50" relative="1" as="geometry">
            <mxPoint x="525" y="300" as="sourcePoint" />
            <mxPoint x="430" y="280" as="targetPoint" />
            <Array as="points">
              <mxPoint x="525" y="260" />
            </Array>
          </mxGeometry>
        </mxCell>
        <mxCell id="V8KVcdp7L9R32G6Ya9ke-23" value="" style="endArrow=none;html=1;fontSize=18;exitX=0.25;exitY=0;exitDx=0;exitDy=0;shadow=0;" edge="1" parent="V8KVcdp7L9R32G6Ya9ke-1">
          <mxGeometry width="50" height="50" relative="1" as="geometry">
            <mxPoint x="598.5" y="240" as="sourcePoint" />
            <mxPoint x="599" y="211" as="targetPoint" />
          </mxGeometry>
        </mxCell>
        <mxCell id="V8KVcdp7L9R32G6Ya9ke-24" value="" style="endArrow=none;html=1;fontSize=18;entryX=1;entryY=0.5;entryDx=0;entryDy=0;shadow=0;" edge="1" parent="V8KVcdp7L9R32G6Ya9ke-1" target="V8KVcdp7L9R32G6Ya9ke-6">
          <mxGeometry width="50" height="50" relative="1" as="geometry">
            <mxPoint x="710" y="260" as="sourcePoint" />
            <mxPoint x="430" y="300" as="targetPoint" />
          </mxGeometry>
        </mxCell>
        <mxCell id="V8KVcdp7L9R32G6Ya9ke-25" value="" style="endArrow=none;html=1;fontSize=18;shadow=0;" edge="1" parent="V8KVcdp7L9R32G6Ya9ke-1">
          <mxGeometry width="50" height="50" relative="1" as="geometry">
            <mxPoint x="710" y="410" as="sourcePoint" />
            <mxPoint x="710" y="260" as="targetPoint" />
          </mxGeometry>
        </mxCell>
        <mxCell id="V8KVcdp7L9R32G6Ya9ke-26" value="" style="endArrow=none;html=1;fontSize=18;exitX=1;exitY=0.5;exitDx=0;exitDy=0;shadow=0;" edge="1" parent="V8KVcdp7L9R32G6Ya9ke-1" source="V8KVcdp7L9R32G6Ya9ke-9">
          <mxGeometry width="50" height="50" relative="1" as="geometry">
            <mxPoint x="710" y="420" as="sourcePoint" />
            <mxPoint x="710" y="410" as="targetPoint" />
            <Array as="points">
              <mxPoint x="710" y="410" />
            </Array>
          </mxGeometry>
        </mxCell>
        <mxCell id="V8KVcdp7L9R32G6Ya9ke-27" value="" style="endArrow=none;html=1;fontSize=18;exitX=0.593;exitY=1.05;exitDx=0;exitDy=0;entryX=0.928;entryY=0.04;entryDx=0;entryDy=0;entryPerimeter=0;exitPerimeter=0;shadow=0;" edge="1" parent="V8KVcdp7L9R32G6Ya9ke-1">
          <mxGeometry width="50" height="50" relative="1" as="geometry">
            <mxPoint x="623.3699999999999" y="281" as="sourcePoint" />
            <mxPoint x="623.44" y="311" as="targetPoint" />
          </mxGeometry>
        </mxCell>
        <mxCell id="V8KVcdp7L9R32G6Ya9ke-28" value="" style="endArrow=none;html=1;fontSize=18;shadow=0;" edge="1" parent="V8KVcdp7L9R32G6Ya9ke-1">
          <mxGeometry width="50" height="50" relative="1" as="geometry">
            <mxPoint x="590" y="280" as="sourcePoint" />
            <mxPoint x="590" y="311" as="targetPoint" />
          </mxGeometry>
        </mxCell>
        <mxCell id="V8KVcdp7L9R32G6Ya9ke-30" value="" style="endArrow=none;html=1;fontSize=18;entryX=0.25;entryY=0;entryDx=0;entryDy=0;shadow=0;" edge="1" parent="V8KVcdp7L9R32G6Ya9ke-1" target="V8KVcdp7L9R32G6Ya9ke-9">
          <mxGeometry width="50" height="50" relative="1" as="geometry">
            <mxPoint x="613" y="360" as="sourcePoint" />
            <mxPoint x="643.44" y="331" as="targetPoint" />
          </mxGeometry>
        </mxCell>
        <mxCell id="V8KVcdp7L9R32G6Ya9ke-31" value="" style="endArrow=none;html=1;fontSize=18;exitX=0;exitY=0.5;exitDx=0;exitDy=0;shadow=0;" edge="1" parent="V8KVcdp7L9R32G6Ya9ke-1" source="V8KVcdp7L9R32G6Ya9ke-9">
          <mxGeometry width="50" height="50" relative="1" as="geometry">
            <mxPoint x="380" y="350" as="sourcePoint" />
            <mxPoint x="560" y="410" as="targetPoint" />
          </mxGeometry>
        </mxCell>
        <mxCell id="V8KVcdp7L9R32G6Ya9ke-32" value="" style="endArrow=none;html=1;fontSize=18;entryX=0.649;entryY=1;entryDx=0;entryDy=0;entryPerimeter=0;shadow=0;" edge="1" parent="V8KVcdp7L9R32G6Ya9ke-1" target="V8KVcdp7L9R32G6Ya9ke-7">
          <mxGeometry width="50" height="50" relative="1" as="geometry">
            <mxPoint x="560" y="410" as="sourcePoint" />
            <mxPoint x="430" y="300" as="targetPoint" />
          </mxGeometry>
        </mxCell>
        <mxCell id="V8KVcdp7L9R32G6Ya9ke-33" value="" style="endArrow=none;html=1;fontSize=18;shadow=0;" edge="1" parent="V8KVcdp7L9R32G6Ya9ke-1">
          <mxGeometry width="50" height="50" relative="1" as="geometry">
            <mxPoint x="518" y="462" as="sourcePoint" />
            <mxPoint x="518" y="360" as="targetPoint" />
          </mxGeometry>
        </mxCell>
        <mxCell id="V8KVcdp7L9R32G6Ya9ke-34" value="" style="endArrow=none;html=1;fontSize=18;shadow=0;" edge="1" parent="V8KVcdp7L9R32G6Ya9ke-1">
          <mxGeometry width="50" height="50" relative="1" as="geometry">
            <mxPoint x="518" y="462" as="sourcePoint" />
            <mxPoint x="590" y="462" as="targetPoint" />
          </mxGeometry>
        </mxCell>
        <mxCell id="V8KVcdp7L9R32G6Ya9ke-35" value="" style="endArrow=none;html=1;fontSize=18;entryX=0;entryY=0.75;entryDx=0;entryDy=0;exitX=1;exitY=0.75;exitDx=0;exitDy=0;shadow=0;" edge="1" parent="V8KVcdp7L9R32G6Ya9ke-1" source="V8KVcdp7L9R32G6Ya9ke-10" target="V8KVcdp7L9R32G6Ya9ke-11">
          <mxGeometry width="50" height="50" relative="1" as="geometry">
            <mxPoint x="380" y="350" as="sourcePoint" />
            <mxPoint x="430" y="300" as="targetPoint" />
          </mxGeometry>
        </mxCell>
        <mxCell id="V8KVcdp7L9R32G6Ya9ke-36" value="" style="endArrow=none;html=1;fontSize=18;exitX=0.5;exitY=0;exitDx=0;exitDy=0;shadow=0;" edge="1" parent="V8KVcdp7L9R32G6Ya9ke-1" source="V8KVcdp7L9R32G6Ya9ke-10">
          <mxGeometry width="50" height="50" relative="1" as="geometry">
            <mxPoint x="380" y="350" as="sourcePoint" />
            <mxPoint x="415" y="430" as="targetPoint" />
          </mxGeometry>
        </mxCell>
        <mxCell id="V8KVcdp7L9R32G6Ya9ke-37" value="" style="endArrow=none;html=1;fontSize=18;shadow=0;" edge="1" parent="V8KVcdp7L9R32G6Ya9ke-1">
          <mxGeometry width="50" height="50" relative="1" as="geometry">
            <mxPoint x="418" y="390" as="sourcePoint" />
            <mxPoint x="418" y="360" as="targetPoint" />
          </mxGeometry>
        </mxCell>
        <mxCell id="V8KVcdp7L9R32G6Ya9ke-38" value="" style="endArrow=none;html=1;fontSize=18;exitX=0;exitY=0.5;exitDx=0;exitDy=0;shadow=0;" edge="1" parent="V8KVcdp7L9R32G6Ya9ke-1" source="V8KVcdp7L9R32G6Ya9ke-7">
          <mxGeometry width="50" height="50" relative="1" as="geometry">
            <mxPoint x="380" y="350" as="sourcePoint" />
            <mxPoint x="360" y="335" as="targetPoint" />
          </mxGeometry>
        </mxCell>
        <mxCell id="V8KVcdp7L9R32G6Ya9ke-39" value="" style="endArrow=none;html=1;fontSize=18;shadow=0;" edge="1" parent="V8KVcdp7L9R32G6Ya9ke-1">
          <mxGeometry width="50" height="50" relative="1" as="geometry">
            <mxPoint x="360" y="336" as="sourcePoint" />
            <mxPoint x="360" y="280" as="targetPoint" />
          </mxGeometry>
        </mxCell>
        <mxCell id="V8KVcdp7L9R32G6Ya9ke-40" value="" style="endArrow=none;html=1;fontSize=18;entryX=1;entryY=0.75;entryDx=0;entryDy=0;shadow=0;" edge="1" parent="V8KVcdp7L9R32G6Ya9ke-1" target="V8KVcdp7L9R32G6Ya9ke-5">
          <mxGeometry width="50" height="50" relative="1" as="geometry">
            <mxPoint x="460" y="270" as="sourcePoint" />
            <mxPoint x="430" y="300" as="targetPoint" />
          </mxGeometry>
        </mxCell>
        <mxCell id="V8KVcdp7L9R32G6Ya9ke-41" value="" style="endArrow=none;html=1;fontSize=18;shadow=0;" edge="1" parent="V8KVcdp7L9R32G6Ya9ke-1">
          <mxGeometry width="50" height="50" relative="1" as="geometry">
            <mxPoint x="460" y="310" as="sourcePoint" />
            <mxPoint x="460" y="270" as="targetPoint" />
          </mxGeometry>
        </mxCell>
        <mxCell id="V8KVcdp7L9R32G6Ya9ke-42" value="" style="endArrow=none;html=1;fontSize=18;entryX=1;entryY=0.25;entryDx=0;entryDy=0;shadow=0;" edge="1" parent="V8KVcdp7L9R32G6Ya9ke-1" target="V8KVcdp7L9R32G6Ya9ke-5">
          <mxGeometry width="50" height="50" relative="1" as="geometry">
            <mxPoint x="500" y="250" as="sourcePoint" />
            <mxPoint x="430" y="300" as="targetPoint" />
          </mxGeometry>
        </mxCell>
        <mxCell id="V8KVcdp7L9R32G6Ya9ke-43" value="" style="endArrow=none;html=1;fontSize=18;exitX=0.391;exitY=-0.013;exitDx=0;exitDy=0;exitPerimeter=0;shadow=0;" edge="1" parent="V8KVcdp7L9R32G6Ya9ke-1" source="V8KVcdp7L9R32G6Ya9ke-7">
          <mxGeometry width="50" height="50" relative="1" as="geometry">
            <mxPoint x="380" y="350" as="sourcePoint" />
            <mxPoint x="500" y="250" as="targetPoint" />
          </mxGeometry>
        </mxCell>
        <mxCell id="V8KVcdp7L9R32G6Ya9ke-46" value="" style="endArrow=none;html=1;fontSize=18;entryX=0.5;entryY=1;entryDx=0;entryDy=0;entryPerimeter=0;" edge="1" parent="V8KVcdp7L9R32G6Ya9ke-1" source="V8KVcdp7L9R32G6Ya9ke-2" target="V8KVcdp7L9R32G6Ya9ke-3">
          <mxGeometry width="50" height="50" relative="1" as="geometry">
            <mxPoint x="380" y="350" as="sourcePoint" />
            <mxPoint x="430" y="300" as="targetPoint" />
          </mxGeometry>
        </mxCell>
        <mxCell id="V8KVcdp7L9R32G6Ya9ke-47" value="" style="endArrow=none;html=1;fontSize=18;exitX=0;exitY=0.5;exitDx=0;exitDy=0;" edge="1" parent="V8KVcdp7L9R32G6Ya9ke-1" source="V8KVcdp7L9R32G6Ya9ke-8">
          <mxGeometry width="50" height="50" relative="1" as="geometry">
            <mxPoint x="380" y="350" as="sourcePoint" />
            <mxPoint x="220" y="410" as="targetPoint" />
          </mxGeometry>
        </mxCell>
        <mxCell id="V8KVcdp7L9R32G6Ya9ke-48" value="" style="endArrow=none;html=1;fontSize=18;entryX=0;entryY=0.5;entryDx=0;entryDy=0;" edge="1" parent="V8KVcdp7L9R32G6Ya9ke-1" target="V8KVcdp7L9R32G6Ya9ke-10">
          <mxGeometry width="50" height="50" relative="1" as="geometry">
            <mxPoint x="230" y="470" as="sourcePoint" />
            <mxPoint x="430" y="300" as="targetPoint" />
          </mxGeometry>
        </mxCell>
        <mxCell id="V8KVcdp7L9R32G6Ya9ke-49" value="&lt;font style=&quot;font-size: 14px&quot;&gt;Sh&lt;/font&gt;" style="text;html=1;align=center;verticalAlign=middle;resizable=0;points=[];autosize=1;strokeColor=none;fontSize=18;shadow=0;" vertex="1" parent="V8KVcdp7L9R32G6Ya9ke-1">
          <mxGeometry x="485" y="215" width="30" height="30" as="geometry" />
        </mxCell>
        <mxCell id="V8KVcdp7L9R32G6Ya9ke-50" value="&lt;font style=&quot;font-size: 14px;&quot;&gt;ISC&lt;/font&gt;" style="text;html=1;align=center;verticalAlign=middle;resizable=0;points=[];autosize=1;strokeColor=none;fontSize=14;shadow=0;" vertex="1" parent="V8KVcdp7L9R32G6Ya9ke-1">
          <mxGeometry x="610" y="220" width="40" height="20" as="geometry" />
        </mxCell>
        <mxCell id="V8KVcdp7L9R32G6Ya9ke-51" value="&lt;font style=&quot;font-size: 14px&quot;&gt;Cx&lt;/font&gt;" style="text;html=1;align=center;verticalAlign=middle;resizable=0;points=[];autosize=1;strokeColor=none;fontSize=18;shadow=0;" vertex="1" parent="V8KVcdp7L9R32G6Ya9ke-1">
          <mxGeometry x="625" y="285" width="30" height="30" as="geometry" />
        </mxCell>
        <mxCell id="V8KVcdp7L9R32G6Ya9ke-52" value="&lt;font style=&quot;font-size: 14px&quot;&gt;Rx&lt;/font&gt;" style="text;html=1;align=center;verticalAlign=middle;resizable=0;points=[];autosize=1;strokeColor=none;fontSize=18;shadow=0;" vertex="1" parent="V8KVcdp7L9R32G6Ya9ke-1">
          <mxGeometry x="560" y="285" width="30" height="30" as="geometry" />
        </mxCell>
        <mxCell id="V8KVcdp7L9R32G6Ya9ke-53" value="SGi" style="text;html=1;align=center;verticalAlign=middle;resizable=0;points=[];autosize=1;strokeColor=none;fontSize=14;shadow=0;" vertex="1" parent="V8KVcdp7L9R32G6Ya9ke-1">
          <mxGeometry x="670" y="315" width="40" height="20" as="geometry" />
        </mxCell>
        <mxCell id="V8KVcdp7L9R32G6Ya9ke-54" value="Rx" style="text;html=1;align=center;verticalAlign=middle;resizable=0;points=[];autosize=1;strokeColor=none;fontSize=14;shadow=0;" vertex="1" parent="V8KVcdp7L9R32G6Ya9ke-1">
          <mxGeometry x="611" y="370" width="30" height="20" as="geometry" />
        </mxCell>
        <mxCell id="V8KVcdp7L9R32G6Ya9ke-55" value="Gx" style="text;html=1;align=center;verticalAlign=middle;resizable=0;points=[];autosize=1;strokeColor=none;fontSize=14;shadow=0;" vertex="1" parent="V8KVcdp7L9R32G6Ya9ke-1">
          <mxGeometry x="555" y="410" width="30" height="20" as="geometry" />
        </mxCell>
        <mxCell id="V8KVcdp7L9R32G6Ya9ke-56" value="Gx" style="text;html=1;align=center;verticalAlign=middle;resizable=0;points=[];autosize=1;strokeColor=none;fontSize=14;shadow=0;" vertex="1" parent="V8KVcdp7L9R32G6Ya9ke-1">
          <mxGeometry x="545" y="440" width="30" height="20" as="geometry" />
        </mxCell>
        <mxCell id="V8KVcdp7L9R32G6Ya9ke-57" value="S5" style="text;html=1;align=center;verticalAlign=middle;resizable=0;points=[];autosize=1;strokeColor=none;fontSize=14;shadow=0;" vertex="1" parent="V8KVcdp7L9R32G6Ya9ke-1">
          <mxGeometry x="535" y="480" width="30" height="20" as="geometry" />
        </mxCell>
        <mxCell id="V8KVcdp7L9R32G6Ya9ke-58" value="S11" style="text;html=1;align=center;verticalAlign=middle;resizable=0;points=[];autosize=1;strokeColor=none;fontSize=14;shadow=0;" vertex="1" parent="V8KVcdp7L9R32G6Ya9ke-1">
          <mxGeometry x="370" y="430" width="40" height="20" as="geometry" />
        </mxCell>
        <mxCell id="V8KVcdp7L9R32G6Ya9ke-59" value="S8-a" style="text;html=1;align=center;verticalAlign=middle;resizable=0;points=[];autosize=1;strokeColor=none;fontSize=14;shadow=0;" vertex="1" parent="V8KVcdp7L9R32G6Ya9ke-1">
          <mxGeometry x="370" y="370" width="40" height="20" as="geometry" />
        </mxCell>
        <mxCell id="V8KVcdp7L9R32G6Ya9ke-60" value="Cx" style="text;html=1;align=center;verticalAlign=middle;resizable=0;points=[];autosize=1;strokeColor=none;fontSize=14;shadow=0;" vertex="1" parent="V8KVcdp7L9R32G6Ya9ke-1">
          <mxGeometry x="428" y="230" width="30" height="20" as="geometry" />
        </mxCell>
        <mxCell id="V8KVcdp7L9R32G6Ya9ke-62" value="Sh" style="text;html=1;align=center;verticalAlign=middle;resizable=0;points=[];autosize=1;strokeColor=none;fontSize=14;shadow=0;" vertex="1" parent="V8KVcdp7L9R32G6Ya9ke-1">
          <mxGeometry x="455" y="280" width="30" height="20" as="geometry" />
        </mxCell>
        <mxCell id="V8KVcdp7L9R32G6Ya9ke-63" value="S8-a" style="text;html=1;align=center;verticalAlign=middle;resizable=0;points=[];autosize=1;strokeColor=none;fontSize=14;shadow=0;" vertex="1" parent="V8KVcdp7L9R32G6Ya9ke-1">
          <mxGeometry x="360" y="310" width="40" height="20" as="geometry" />
        </mxCell>
        <mxCell id="V8KVcdp7L9R32G6Ya9ke-65" value="S1-U" style="text;html=1;align=center;verticalAlign=middle;resizable=0;points=[];autosize=1;strokeColor=none;fontSize=14;" vertex="1" parent="V8KVcdp7L9R32G6Ya9ke-1">
          <mxGeometry x="270" y="450" width="50" height="20" as="geometry" />
        </mxCell>
        <mxCell id="V8KVcdp7L9R32G6Ya9ke-67" value="eNodeB" style="text;html=1;align=center;verticalAlign=middle;resizable=0;points=[];autosize=1;strokeColor=none;fontSize=14;" vertex="1" parent="V8KVcdp7L9R32G6Ya9ke-1">
          <mxGeometry x="95" y="320" width="70" height="20" as="geometry" />
        </mxCell>
        <mxCell id="V8KVcdp7L9R32G6Ya9ke-74" value="" style="swimlane;shadow=0;fontSize=14;" vertex="1" parent="V8KVcdp7L9R32G6Ya9ke-1">
          <mxGeometry x="330" y="110" width="400" height="400" as="geometry" />
        </mxCell>
        <mxCell id="V8KVcdp7L9R32G6Ya9ke-75" value="LTE终端" style="swimlane;shadow=0;fontSize=14;" vertex="1" parent="V8KVcdp7L9R32G6Ya9ke-1">
          <mxGeometry x="80" y="110" width="180" height="400" as="geometry" />
        </mxCell>
        <mxCell id="V8KVcdp7L9R32G6Ya9ke-66" value="LTE终端" style="text;html=1;align=center;verticalAlign=middle;resizable=0;points=[];autosize=1;strokeColor=none;fontSize=14;" vertex="1" parent="V8KVcdp7L9R32G6Ya9ke-75">
          <mxGeometry x="10" y="72" width="70" height="20" as="geometry" />
        </mxCell>
        <mxCell id="V8KVcdp7L9R32G6Ya9ke-64" value="S1-MME" style="text;html=1;align=center;verticalAlign=middle;resizable=0;points=[];autosize=1;strokeColor=none;fontSize=14;" vertex="1" parent="V8KVcdp7L9R32G6Ya9ke-1">
          <mxGeometry x="260" y="390" width="70" height="20" as="geometry" />
        </mxCell>
      </root>
    </mxGraphModel>
  </diagram>
</mxfile>
